PathFileType	4	(X/Y/Z)	D:\TRACE\v60_Jaco2_6-2-23\BothDRS_Motion2_10-v60.trc
DataRate	CameraRate	NumFrames	NumMarkers	Units	OrigDataRate	OrigDataStartFrame	OrigNumFrames
100.00	100.00	      35	9	mm	100.00	1	      7500
Frame#	Time	front left toe			Front right toe			aft left toe			aft right toe			Arm			FL body			FR body			AL Body			AR Body			
		X1	Y1	Z1	X2	Y2	Z2	X3	Y3	Z3	X4	Y4	Z4	X5	Y5	Z5	X6	Y6	Z6	X7	Y7	Z7	X8	Y8	Z8	X9	Y9	Z9	

1	0.000	-146.71504	19.36815	-258.73260	268.05289	18.71358	-335.17065	-52.00150	13.39729	326.23312	348.32925	19.43393	315.17691	68.68024	1210.25024	-322.19272	-36.40500	580.29248	-417.18811	122.84073	580.01440	-439.82721	93.11290	581.70740	519.83136	248.21738	576.33997	501.76126	
2	0.010	-146.71623	19.35398	-258.72971	268.05237	18.71576	-335.19699	-52.00402	13.39342	326.22537	348.62418	19.30181	315.19809	68.66774	1210.24719	-322.19794	-36.41418	580.30774	-417.24985	122.84625	580.01312	-439.81082	93.11230	581.69775	519.81781	249.42599	576.34949	503.29721	
3	0.020	-146.67230	19.33853	-258.74185	268.03333	18.70710	-335.17938	-52.04184	13.41407	326.24969	348.61075	19.26986	315.14035	68.67262	1210.25134	-322.19910	-36.31848	580.26428	-417.26874	122.87135	580.02112	-439.82968	93.08126	581.72198	519.83722	248.07732	576.00232	500.73117	
4	0.030	-146.67209	19.32569	-258.73264	268.06454	18.71403	-335.17645	-51.99446	13.36116	326.27460	348.63553	19.31141	315.18634	68.70177	1210.24915	-322.20499	-36.31669	580.29108	-417.23328	122.87579	580.01935	-439.80334	93.10104	581.72913	519.82446	248.38045	575.85962	501.10568	
5	0.040	-146.67609	19.31413	-258.75095	268.01944	18.69978	-335.18436	-51.96671	13.36880	326.23837	348.62576	19.30185	315.18936	68.70190	1210.24536	-322.20444	-36.34811	580.29712	-417.22098	122.82729	580.01813	-439.82770	93.08027	581.72498	519.82916	248.35019	575.88531	501.09677	
6	0.050	-146.66599	19.34537	-258.74039	268.06647	18.70364	-335.16760	-51.99754	13.39138	326.24911	348.61197	19.28773	315.13684	68.70224	1210.22754	-322.21704	-36.34449	580.28857	-417.24734	122.86691	579.99902	-439.79968	93.12752	581.72809	519.82581	248.06136	576.01672	500.72537	
7	0.060	-146.70622	19.34852	-258.74753	268.05649	18.70819	-335.16183	-52.01905	13.42416	326.21869	348.60712	19.28440	315.17325	68.66949	1210.23511	-322.22177	-36.33666	580.25507	-417.21866	122.84453	580.02002	-439.81345	93.04152	581.71692	519.82220	248.40327	575.88116	501.11313	
8	0.070	-146.68990	19.33458	-258.74228	268.05890	18.73557	-335.18378	-52.03083	13.39180	326.24200	348.62958	19.30683	315.17966	68.67891	1210.21936	-322.21567	-36.37494	580.28363	-417.20374	122.86551	580.01605	-439.79599	93.10352	581.67328	519.80017	248.07207	576.00189	500.73111	
9	0.080	-146.68336	19.31842	-258.72421	268.11353	18.72927	-335.18640	-52.02357	13.34789	326.27994	348.62518	19.31612	315.21237	68.69953	1210.23108	-322.20178	-36.30131	580.25500	-417.23035	122.86168	580.01770	-439.78641	93.08203	581.69305	519.81403	248.32178	575.87592	501.09845	
10	0.090	-146.70639	19.33173	-258.73804	268.05215	18.70979	-335.19763	-51.99083	13.38939	326.26566	348.63000	19.29017	315.19598	68.68336	1210.23279	-322.19995	-36.31433	580.23828	-417.23056	122.84003	580.02399	-439.82309	93.33319	581.83990	519.72888	248.34407	575.86517	501.10724	
11	0.100	-146.71289	19.31739	-258.74454	268.08823	18.72048	-335.19321	-52.01567	13.37637	326.26541	348.61844	19.28665	315.17245	68.64215	1210.24292	-322.20398	-36.34829	580.27521	-417.27502	122.84538	580.01099	-439.83130	93.11523	581.69196	519.80951	248.01678	576.00018	500.73325	
12	0.110	-146.65761	19.29933	-258.73593	268.05450	18.71944	-335.18463	-51.98762	13.36719	326.29251	348.66223	19.31264	315.21133	68.68785	1210.23242	-322.21240	-36.33014	580.24072	-417.23672	122.83345	580.03204	-439.82590	93.08430	581.69409	519.82343	248.37752	575.86359	501.11331	
13	0.120	-146.64925	19.30075	-258.74109	268.07498	18.72115	-335.16394	-52.00835	13.37048	326.28088	348.66751	19.30549	315.20605	68.67726	1210.21838	-322.20270	-36.37920	580.24591	-417.23758	122.86156	580.01978	-439.79965	93.04942	581.71814	519.80853	248.33467	575.88708	501.11853	
14	0.130	-146.65533	19.29564	-258.72540	268.04156	18.70370	-335.17908	-52.03062	13.37893	326.24695	348.62738	19.28856	315.19919	68.68740	1210.23608	-322.21149	-36.32637	580.27850	-417.22794	122.84660	580.02661	-439.83234	93.08646	581.69952	519.81586	248.36115	575.87030	501.11096	
15	0.140	-146.66891	19.30327	-258.73694	268.04825	18.71482	-335.17041	-52.00340	13.38061	326.25275	348.62775	19.29280	315.20569	68.63953	1210.21631	-322.19659	-36.36519	580.27435	-417.22873	122.85803	580.02081	-439.81326	93.02834	581.70514	519.83661	248.05965	576.00500	500.72452	
16	0.150	-146.69421	19.31727	-258.71854	268.06403	18.70788	-335.17789	-52.00115	13.38457	326.26862	348.32431	19.44979	315.16760	68.63827	1210.23706	-322.18677	-36.34377	580.28796	-417.25900	122.86237	580.00323	-439.81464	93.10291	581.68518	519.82782	248.03905	576.00623	500.71863	
17	0.160	-146.69212	19.32469	-258.72067	268.04648	18.71739	-335.18390	-52.04083	13.35691	326.28131	348.62137	19.30579	315.19150	68.62893	1210.24524	-322.20514	-36.38950	580.26923	-417.21490	122.84353	580.01843	-439.83618	93.04162	581.73859	519.84106	248.02660	575.99603	500.71628	
18	0.170	-146.70462	19.31096	-258.75348	268.08652	18.71722	-335.17615	-52.00386	13.36752	326.26096	348.60114	19.29092	315.15024	68.63603	1210.23328	-322.21881	-36.36008	580.28558	-417.21170	122.83859	580.01666	-439.83371	93.08418	581.69287	519.81421	248.31996	575.91284	501.09698	
19	0.180	-146.69089	19.33552	-258.73175	268.03354	18.69459	-335.17282	-51.99546	13.34414	326.26602	348.62891	19.29731	315.19528	68.62942	1210.21350	-322.21637	-36.36926	580.28223	-417.25763	122.79666	580.02301	-439.85672	93.05302	581.71082	519.83325	248.02037	576.01843	500.71420	
20	0.190	-146.70186	19.33490	-258.72833	268.04501	18.70318	-335.17719	-52.02617	13.38548	326.25027	348.62625	19.30550	315.23538	68.61688	1210.21692	-322.20963	-36.37410	580.24457	-417.23044	122.84817	580.01910	-439.82355	93.06494	581.73627	519.81085	248.04427	576.01935	500.72772	
21	0.200	-146.67981	19.31325	-258.73318	268.05228	18.70635	-335.14792	-52.00595	13.40762	326.23730	348.61536	19.30098	315.19528	68.59985	1210.23425	-322.23187	-36.45430	580.28729	-417.28101	122.83331	580.02075	-439.81683	93.07579	581.74152	519.82489	248.31467	575.89746	501.09756	
22	0.210	-146.68787	19.32457	-258.73883	268.02689	18.73217	-335.19794	-52.01498	13.40648	326.25659	348.64200	19.30261	315.17542	68.62292	1210.23083	-322.23425	-36.37656	580.29645	-417.24615	122.88499	580.00250	-439.81009	93.07545	581.69580	519.80457	248.36111	575.88824	501.11203	
23	0.220	-146.66893	19.32073	-258.71429	268.04791	18.70644	-335.18805	-51.99783	13.36770	326.28671	348.59604	19.25765	315.15781	68.63508	1210.22327	-322.19690	-36.38827	580.28961	-417.24008	122.80704	580.01208	-439.85031	93.06860	581.72583	519.83704	248.02303	576.03094	500.71881	
24	0.230	-146.68056	19.32852	-258.72095	268.05878	18.71096	-335.19186	-51.98170	13.36379	326.24695	348.63437	19.30170	315.17694	68.64201	1210.21277	-322.23267	-36.31510	580.26038	-417.20786	122.86922	580.02155	-439.80109	93.05972	581.70740	519.80560	248.05940	576.02271	500.71036	
25	0.240	-146.78476	19.39160	-258.75809	268.06888	18.72019	-335.16360	-52.03714	13.41669	326.24786	348.61124	19.27630	315.16998	68.63175	1210.23267	-322.21048	-36.35569	580.26575	-417.23810	122.86443	580.02844	-439.82983	93.01250	581.72174	519.83319	247.99510	576.01782	500.72830	
26	0.250	-146.70729	19.34221	-258.74835	268.08231	18.71593	-335.19318	-52.00624	13.37908	326.24805	348.64514	19.31558	315.18045	68.64477	1210.23853	-322.21381	-36.40069	580.28210	-417.26767	122.81050	580.01855	-439.84360	93.11075	581.71844	519.81024	248.35190	575.90588	501.10706	
27	0.260	-146.62230	19.28667	-258.72003	268.08624	18.75548	-335.12509	-52.02301	13.38075	326.27341	348.61407	19.30950	315.19095	68.64487	1210.21143	-322.23566	-36.46138	580.31219	-417.25342	122.87097	580.01556	-439.84790	93.07461	581.73309	519.80017	248.33617	575.90442	501.09390	
28	0.270	-146.66071	19.28903	-258.74048	268.06271	18.71430	-335.16541	-52.02528	13.35691	326.27502	348.63495	19.28739	315.13797	68.61866	1210.23181	-322.23749	-36.37399	580.26221	-417.23181	122.86671	580.01868	-439.79660	93.06570	581.70551	519.82605	248.02530	576.00488	500.69858	
29	0.280	-146.65858	19.28589	-258.73694	268.04944	18.71932	-335.17136	-51.99757	13.33806	326.25214	348.34622	19.45131	315.19693	68.67258	1210.19434	-322.22894	-36.30197	580.24860	-417.21860	122.84033	580.03394	-439.84061	93.02016	581.73145	519.80902	248.30621	575.87787	501.11127	
30	0.290	-146.65323	19.28711	-258.71545	267.98611	18.69018	-335.19052	-52.05661	13.37354	326.29871	348.60950	19.29736	315.17242	68.64909	1210.21997	-322.24039	-36.37726	580.25000	-417.22580	122.83389	580.01501	-439.81952	93.07895	581.70392	519.81897	248.32164	575.90179	501.11133	
31	0.300	-146.70398	19.36387	-258.75110	268.06027	18.72199	-335.18417	-52.02404	13.37681	326.26700	348.62195	19.30982	315.19107	68.63043	1210.22522	-322.22491	-36.36799	580.28705	-417.22614	122.83226	580.01935	-439.84116	93.05750	581.73969	519.80933	248.32692	575.88165	501.10641	
32	0.310	-146.72153	19.35442	-258.74557	268.07358	18.73057	-335.18555	-52.01711	13.43965	326.30145	348.64886	19.30803	315.19482	68.67146	1210.20325	-322.21106	-36.42303	580.27386	-417.26083	122.84763	580.02069	-439.82782	93.11394	581.67664	519.79828	248.04846	576.01404	500.69421	
33	0.320	-146.70032	19.34475	-258.73679	268.05484	18.72876	-335.15265	-52.02666	13.39923	326.25000	348.61594	19.28945	315.18631	68.66281	1210.20728	-322.23773	-36.42576	580.28918	-417.23224	122.83975	580.03595	-439.83499	93.07983	581.70410	519.80115	248.04950	575.99548	500.71939	
34	0.330	-146.67601	19.30009	-258.73755	268.07867	18.73440	-335.17941	-51.97864	13.36670	326.24118	348.62720	19.29014	315.18213	68.69025	1210.22107	-322.22079	-36.34311	580.26489	-417.22440	122.81965	580.00446	-439.85590	93.06616	581.71246	519.83179	248.34778	575.90253	501.10596	
35	0.340	-146.63501	19.28330	-258.74661	268.06833	18.70930	-335.18298	-51.98935	13.35340	326.27658	348.61725	19.30252	315.21164	68.65009	1210.22913	-322.22647	-36.37329	580.27283	-417.23401	122.84364	580.00409	-439.82935	93.03127	581.73700	519.80920	248.03897	576.00513	500.69171	
